<?xml version="1.0" encoding="UTF-8"?>
<svg version="1.1" xmlns="http://www.w3.org/2000/svg" width="256" height="256">
<path d="M0 0 C4.35944153 2.22084757 7.16830464 4.42076159 9 9 C9.55279021 13.89614183 9.47083949 17.65880392 7 22 C8.2065625 22.6496875 8.2065625 22.6496875 9.4375 23.3125 C12 25 12 25 13 28 C13.03954234 30.33299825 13.04401732 32.66708189 13 35 C13.68964844 34.93039063 14.37929687 34.86078125 15.08984375 34.7890625 C22.96914107 34.33511121 26.97507982 36.07929117 33 41 C34.58153983 42.25226842 36.16486051 43.5022912 37.75 44.75 C38.44609375 45.32234375 39.1421875 45.8946875 39.859375 46.484375 C45.28442648 50.32546984 50.29523543 50.29330412 56.71875 50.30859375 C58.63932606 50.33374533 60.55989891 50.35914348 62.48046875 50.38476562 C65.49559759 50.413535 68.5106708 50.43756629 71.52587891 50.45629883 C74.44462104 50.47795969 77.36272791 50.51738846 80.28125 50.55859375 C81.18033081 50.55870956 82.07941162 50.55882538 83.0057373 50.5589447 C89.2882023 50.65819003 92.66257924 51.78892631 97.3125 56.1875 C99.63265491 60.05442486 99.30214142 62.54341411 99 67 C96.04335481 68.4783226 93.25770263 68.06032783 90 68 C89.938125 69.03125 89.87625 70.0625 89.8125 71.125 C88.80988902 75.90668313 87.18837085 77.40990459 84 81 C84.28496338 81.51981445 84.56992676 82.03962891 84.86352539 82.57519531 C90.85108753 93.50560548 96.79317784 104.45901939 102.66439819 115.45233154 C105.43579317 120.63871501 108.21694694 125.81986475 111 131 C111.5249707 131.97807617 112.04994141 132.95615234 112.59082031 133.96386719 C113.9687241 136.52231164 115.35692033 139.07479518 116.75 141.625 C117.14396973 142.35879883 117.53793945 143.09259766 117.94384766 143.84863281 C119.73061112 147.09312318 120.86339931 148.90893287 124 151 C123.09536947 159.65681164 117.17269338 165.47647942 110.625 170.8125 C97.8529341 180.07551707 83.47251394 183.69871049 67.81640625 181.56640625 C52.88653916 178.68080169 41.4765795 170.87781672 32.39453125 158.87890625 C30.7866444 156.32714043 29.9382185 154.60236962 30.25 151.5625 C30.62125 150.7890625 30.62125 150.7890625 31 150 C31.99 150 32.98 150 34 150 C34.22558594 149.20335937 34.45117188 148.40671875 34.68359375 147.5859375 C36.37184113 142.98709152 38.6738261 138.89298954 41.0625 134.625 C46.83935646 124.17780164 52.45950157 113.6536055 58.04104614 103.10113525 C61.95848662 95.69530256 65.87970498 88.29586436 70 81 C69.360625 80.21625 68.72125 79.4325 68.0625 78.625 C64.67127679 74.30889773 65 74.16636286 65 68 C45.53 68 26.06 68 6 68 C6 97.04 6 126.08 6 156 C6.99 156.33 7.98 156.66 9 157 C12.37359622 161.15211842 13.31265665 165.75065942 13 171 C11.96062505 174.48724865 10.59035662 177.73055442 9 181 C9.61875 181.2475 10.2375 181.495 10.875 181.75 C13.45149909 183.2655877 13.98413636 184.2161429 15 187 C15.5851672 189.83643548 16.00756736 192.67540401 16.4375 195.5390625 C16.80753666 198.16204875 16.80753666 198.16204875 19 200 C20.9115417 200.17455695 22.83104056 200.26715146 24.75 200.3125 C30.59854128 200.69163713 33.09465049 201.67245054 37 206 C38.26237731 208.52475462 38.09856404 210.31200466 38.0625 213.125 C38.05347656 214.03507813 38.04445312 214.94515625 38.03515625 215.8828125 C38.01775391 216.93082031 38.01775391 216.93082031 38 218 C39.01320312 217.96519531 40.02640625 217.93039063 41.0703125 217.89453125 C42.4218583 217.86637405 43.77342219 217.83907597 45.125 217.8125 C45.79015625 217.78736328 46.4553125 217.76222656 47.140625 217.73632812 C52.60323751 217.65599559 56.60839836 218.76745975 60.64453125 222.53515625 C65.9449583 229.46648394 65 229.27855342 65 240 C72.92 240 80.84 240 89 240 C89.66 241.32 90.32 242.64 91 244 C90.34 245.32 89.68 246.64 89 248 C27.62 248 -33.76 248 -97 248 C-97.66 246.35 -98.32 244.7 -99 243 C-98.34 242.01 -97.68 241.02 -97 240 C-94.56982422 239.65942383 -94.56982422 239.65942383 -91.5546875 239.70703125 C-90.47832031 239.71669922 -89.40195313 239.72636719 -88.29296875 239.73632812 C-87.16503906 239.76146484 -86.03710938 239.78660156 -84.875 239.8125 C-83.73933594 239.82603516 -82.60367188 239.83957031 -81.43359375 239.85351562 C-78.62192613 239.88895681 -75.81119583 239.93836483 -73 240 C-73.01957764 239.24581787 -73.03915527 238.49163574 -73.05932617 237.71459961 C-73.08216675 236.22972046 -73.08216675 236.22972046 -73.10546875 234.71484375 C-73.13483521 233.24325806 -73.13483521 233.24325806 -73.16479492 231.74194336 C-72.85582289 226.60110653 -70.09774029 223.99064368 -66.4375 220.6875 C-62.15595257 217.72335178 -58.32251962 217.87668744 -53.3125 217.9375 C-52.61060547 217.94201172 -51.90871094 217.94652344 -51.18554688 217.95117188 C-49.45699462 217.96293073 -47.72848635 217.98086546 -46 218 C-46.05800781 217.34773437 -46.11601563 216.69546875 -46.17578125 216.0234375 C-46.59027551 207.99409145 -46.59027551 207.99409145 -43.625 204.4375 C-39.20831084 200.33628863 -35.598198 200.7092732 -29.75 200.37890625 C-26.86015992 200.26280834 -26.86015992 200.26280834 -25 198 C-24.1592581 194.44775544 -23.52889969 190.87683429 -22.87890625 187.28515625 C-22.03821915 184.1428547 -21.63326939 182.82510487 -19 181 C-18.34 181 -17.68 181 -17 181 C-17.45052734 180.07380859 -17.45052734 180.07380859 -17.91015625 179.12890625 C-20.60787569 173.12076499 -21.94781793 168.43147431 -20 162 C-18.86586447 159.61880636 -17.72929678 158.04371438 -16 156 C-15.34 156 -14.68 156 -14 156 C-14 126.96 -14 97.92 -14 68 C-33.47 68 -52.94 68 -73 68 C-73 69.98 -73 71.96 -73 74 C-74.27754554 76.0360882 -75.60699818 78.04109119 -77 80 C-77 83.80890642 -75.4729854 86.26021346 -73.703125 89.51953125 C-73.3581044 90.16635864 -73.0130838 90.81318604 -72.65760803 91.47961426 C-71.52777669 93.59387354 -70.38906029 95.70320065 -69.25 97.8125 C-68.46984157 99.26757859 -67.69014012 100.72290228 -66.91088867 102.1784668 C-61.52571527 112.22389852 -56.09516679 122.24530301 -50.61328125 132.23828125 C-50.1951416 133.00221191 -49.77700195 133.76614258 -49.34619141 134.55322266 C-48.34997603 136.3638992 -47.34582487 138.1702146 -46.33740234 139.97412109 C-45.78648926 140.96621582 -45.23557617 141.95831055 -44.66796875 142.98046875 C-44.15903076 143.89078857 -43.65009277 144.8011084 -43.12573242 145.73901367 C-42 148 -42 148 -42 150 C-40.68 150.33 -39.36 150.66 -38 151 C-38.34330638 156.49290208 -41.60281108 159.95787014 -45 164 C-45.53238281 164.66386719 -46.06476563 165.32773438 -46.61328125 166.01171875 C-54.37342114 174.76983672 -67.3123957 181.14758153 -79 182 C-79.92941406 182.06832031 -80.85882813 182.13664063 -81.81640625 182.20703125 C-96.91878168 182.73866637 -110.06103745 177.94506064 -121.58984375 168.31640625 C-125.66812885 164.39675784 -129.46895217 160.0848979 -132 155 C-131.94522434 151.70848105 -131.48200802 150.46901622 -129.1159668 148.16674805 C-126.86650949 145.86330584 -125.63406638 143.78061929 -124.1875 140.9140625 C-123.67541992 139.91181641 -123.16333984 138.90957031 -122.63574219 137.87695312 C-121.8260498 136.26723633 -121.8260498 136.26723633 -121 134.625 C-119.84041288 132.35581364 -118.67891608 130.08760226 -117.515625 127.8203125 C-116.92974609 126.67723633 -116.34386719 125.53416016 -115.74023438 124.35644531 C-113.15127409 119.36303539 -110.45868886 114.42919911 -107.75 109.5 C-107.26192871 108.60571289 -106.77385742 107.71142578 -106.27099609 106.79003906 C-103.93363654 102.50868239 -101.57532716 98.24121622 -99.1796875 93.9921875 C-98.32778728 92.45331191 -97.47620646 90.91425944 -96.625 89.375 C-96.22506836 88.68212891 -95.82513672 87.98925781 -95.41308594 87.27539062 C-94.20191367 85.15123959 -94.20191367 85.15123959 -93 82 C-93.53386742 79.69157162 -93.53386742 79.69157162 -95 78 C-97.06040909 74.19616784 -98 72.40268476 -98 68 C-99.670625 68.0309375 -99.670625 68.0309375 -101.375 68.0625 C-105 68 -105 68 -107 67 C-107.7162143 60.19596419 -107.7162143 60.19596419 -105.76953125 56.9453125 C-103.27121895 53.97201243 -101.74627846 52.24875949 -98 51 C-96.61540109 50.90625832 -95.22686428 50.8647409 -93.83911133 50.8581543 C-92.58684502 50.84760262 -92.58684502 50.84760262 -91.3092804 50.83683777 C-90.40928818 50.83267349 -89.50929596 50.82850922 -88.58203125 50.82421875 C-86.6686089 50.80101139 -84.75519742 50.77689369 -82.84179688 50.75195312 C-79.83122581 50.71692085 -76.82105231 50.68753825 -73.81030273 50.67407227 C-70.90039 50.65851635 -67.99163485 50.61825029 -65.08203125 50.57421875 C-63.74722466 50.57708138 -63.74722466 50.57708138 -62.38545227 50.58000183 C-53.5510028 50.40872569 -47.87057856 47.09625141 -41.25 41.375 C-36.06404684 36.91508029 -33.19547864 34.70963146 -26.25 34.875 C-24.77273437 34.90207031 -24.77273437 34.90207031 -23.265625 34.9296875 C-22.51796875 34.95289063 -21.7703125 34.97609375 -21 35 C-21.061875 33.948125 -21.12375 32.89625 -21.1875 31.8125 C-20.98949851 27.78646977 -20.42518953 26.14376421 -18 23 C-17.01 22.34 -16.02 21.68 -15 21 C-15.99 19.515 -15.99 19.515 -17 18 C-17.59992545 13.83947804 -17.43783544 10.0945886 -15.875 6.1875 C-11.37354642 0.93580415 -6.80346969 -1.3443982 0 0 Z M-86 88 C-86.45213867 88.85416504 -86.90427734 89.70833008 -87.37011719 90.58837891 C-89.49506038 94.60147953 -91.62206388 98.61348565 -93.75 102.625 C-94.1344931 103.34985596 -94.51898621 104.07471191 -94.91513062 104.8215332 C-100.29058213 114.9505249 -105.708694 125.0529227 -111.24316406 135.09619141 C-111.68499023 135.89976074 -112.12681641 136.70333008 -112.58203125 137.53125 C-112.95561768 138.20736328 -113.3292041 138.88347656 -113.71411133 139.58007812 C-115.54164969 143.01933391 -117.25825508 146.51651017 -119 150 C-96.89 150 -74.78 150 -52 150 C-53.42206044 145.73381868 -54.66611905 142.48809818 -56.765625 138.640625 C-57.31943848 137.6192041 -57.87325195 136.5977832 -58.44384766 135.54541016 C-59.33789307 133.91418213 -59.33789307 133.91418213 -60.25 132.25 C-61.19027322 130.52333435 -62.13053459 128.79666212 -63.07009888 127.0696106 C-63.72010717 125.8751684 -64.37072923 124.68106003 -65.02194214 123.48727417 C-67.34501521 119.22373919 -69.62960494 114.94104109 -71.8984375 110.6484375 C-72.52942045 109.45920273 -73.16060251 108.27007357 -73.79199219 107.08105469 C-74.99319195 104.81624598 -76.18934677 102.54875271 -77.37988281 100.27832031 C-77.92741211 99.25061523 -78.47494141 98.22291016 -79.0390625 97.1640625 C-79.51553223 96.26123535 -79.99200195 95.3584082 -80.48291016 94.42822266 C-82.06417021 91.89729048 -83.81439713 90.01978634 -86 88 Z M77 88 C72.01312451 95.39498648 68.01880771 103.36536729 63.875 111.25 C62.3654427 114.11312388 60.85334353 116.97489589 59.33984375 119.8359375 C58.96841751 120.53828522 58.59699127 121.24063293 58.21430969 121.96426392 C54.58707326 128.80757154 50.85452551 135.59147007 47.04833984 142.33691406 C44.80679604 145.94687588 44.80679604 145.94687588 44 150 C66.11 150 88.22 150 111 150 C104.33606689 136.64488096 104.33606689 136.64488096 97.3125 123.5 C96.2925757 121.64344504 95.27306092 119.78666506 94.25390625 117.9296875 C93.72941895 116.97545898 93.20493164 116.02123047 92.66455078 115.03808594 C89.67297024 109.57794685 86.71258445 104.1009095 83.75 98.625 C83.17677002 97.56603516 82.60354004 96.50707031 82.01293945 95.41601562 C80.6749849 92.94417692 79.3373318 90.47217568 78 88 C77.67 88 77.34 88 77 88 Z " fill="#FEE076" transform="translate(132,4)"/>
<path d="M0 0 C1.65 0.66 3.3 1.32 5 2 C7.23186177 2.3112078 7.23186177 2.3112078 9.4375 2.25 C10.15808594 2.25515625 10.87867188 2.2603125 11.62109375 2.265625 C14.66910674 2.00918711 14.66910674 2.00918711 20 0 C20 29.04 20 58.08 20 88 C21.485 88.495 21.485 88.495 23 89 C26.37359622 93.15211842 27.31265665 97.75065942 27 103 C25.96062505 106.48724865 24.59035662 109.73055442 23 113 C23.61875 113.2475 24.2375 113.495 24.875 113.75 C27.45149909 115.2655877 27.98413636 116.2161429 29 119 C29.5851672 121.83643548 30.00756736 124.67540401 30.4375 127.5390625 C30.80753666 130.16204875 30.80753666 130.16204875 33 132 C34.9115417 132.17455695 36.83104056 132.26715146 38.75 132.3125 C44.59854128 132.69163713 47.09465049 133.67245054 51 138 C52.26237731 140.52475462 52.09856404 142.31200466 52.0625 145.125 C52.05347656 146.03507813 52.04445312 146.94515625 52.03515625 147.8828125 C52.01775391 148.93082031 52.01775391 148.93082031 52 150 C53.01320312 149.96519531 54.02640625 149.93039063 55.0703125 149.89453125 C56.4218583 149.86637405 57.77342219 149.83907597 59.125 149.8125 C59.79015625 149.78736328 60.4553125 149.76222656 61.140625 149.73632812 C66.60323751 149.65599559 70.60839836 150.76745975 74.64453125 154.53515625 C79.9449583 161.46648394 79 161.27855342 79 172 C86.92 172 94.84 172 103 172 C103.66 173.32 104.32 174.64 105 176 C104.34 177.32 103.68 178.64 103 180 C41.62 180 -19.76 180 -83 180 C-83.99 177.525 -83.99 177.525 -85 175 C-84.34 174.01 -83.68 173.02 -83 172 C-80.56982422 171.65942383 -80.56982422 171.65942383 -77.5546875 171.70703125 C-76.47832031 171.71669922 -75.40195313 171.72636719 -74.29296875 171.73632812 C-73.16503906 171.76146484 -72.03710938 171.78660156 -70.875 171.8125 C-69.73933594 171.82603516 -68.60367188 171.83957031 -67.43359375 171.85351562 C-64.62192613 171.88895681 -61.81119583 171.93836483 -59 172 C-59.01957764 171.24581787 -59.03915527 170.49163574 -59.05932617 169.71459961 C-59.07455322 168.72468018 -59.08978027 167.73476074 -59.10546875 166.71484375 C-59.13483521 165.24325806 -59.13483521 165.24325806 -59.16479492 163.74194336 C-58.85582289 158.60110653 -56.09774029 155.99064368 -52.4375 152.6875 C-48.15595257 149.72335178 -44.32251962 149.87668744 -39.3125 149.9375 C-38.61060547 149.94201172 -37.90871094 149.94652344 -37.18554688 149.95117188 C-35.45699462 149.96293073 -33.72848635 149.98086546 -32 150 C-32.08701172 149.02160156 -32.08701172 149.02160156 -32.17578125 148.0234375 C-32.59027551 139.99409145 -32.59027551 139.99409145 -29.625 136.4375 C-25.20831084 132.33628863 -21.598198 132.7092732 -15.75 132.37890625 C-12.86015992 132.26280834 -12.86015992 132.26280834 -11 130 C-10.1592581 126.44775544 -9.52889969 122.87683429 -8.87890625 119.28515625 C-8.03821915 116.1428547 -7.63326939 114.82510487 -5 113 C-4.34 113 -3.68 113 -3 113 C-3.45052734 112.07380859 -3.45052734 112.07380859 -3.91015625 111.12890625 C-6.60787569 105.12076499 -7.94781793 100.43147431 -6 94 C-4.86586447 91.61880636 -3.72929678 90.04371438 -2 88 C-1.34 88 -0.68 88 0 88 C0 58.96 0 29.92 0 0 Z " fill="#D8AA5E" transform="translate(118,72)"/>
<path d="M0 0 C1.07765625 0.01804688 2.1553125 0.03609375 3.265625 0.0546875 C4.49539062 0.08949219 4.49539062 0.08949219 5.75 0.125 C6.03875 1.094375 6.3275 2.06375 6.625 3.0625 C7.39214682 6.23164203 7.39214682 6.23164203 9.75 7.125 C9.28816709 9.28022027 8.79127721 11.04940418 7.73046875 12.9921875 C6.06590031 16.61312123 6.29577787 20.22004559 6.75 24.125 C8.11939024 27.48623058 9.73995966 30.10993949 11.75 33.125 C-7.72 33.125 -27.19 33.125 -47.25 33.125 C-47.25 35.105 -47.25 37.085 -47.25 39.125 C-48.52754554 41.1610882 -49.85699818 43.16609119 -51.25 45.125 C-51.25 48.93390642 -49.7229854 51.38521346 -47.953125 54.64453125 C-47.6081044 55.29135864 -47.2630838 55.93818604 -46.90760803 56.60461426 C-45.77777669 58.71887354 -44.63906029 60.82820065 -43.5 62.9375 C-42.71984157 64.39257859 -41.94014012 65.84790228 -41.16088867 67.3034668 C-35.77571527 77.34889852 -30.34516679 87.37030301 -24.86328125 97.36328125 C-24.4451416 98.12721191 -24.02700195 98.89114258 -23.59619141 99.67822266 C-22.59997603 101.4888992 -21.59582487 103.2952146 -20.58740234 105.09912109 C-20.03648926 106.09121582 -19.48557617 107.08331055 -18.91796875 108.10546875 C-18.15456177 109.47094849 -18.15456177 109.47094849 -17.37573242 110.86401367 C-16.25 113.125 -16.25 113.125 -16.25 115.125 C-14.27 115.62 -14.27 115.62 -12.25 116.125 C-12.59330638 121.61790208 -15.85281108 125.08287014 -19.25 129.125 C-19.78238281 129.78886719 -20.31476563 130.45273438 -20.86328125 131.13671875 C-28.62342114 139.89483672 -41.5623957 146.27258153 -53.25 147.125 C-54.17941406 147.19332031 -55.10882813 147.26164063 -56.06640625 147.33203125 C-71.16878168 147.86366637 -84.31103745 143.07006064 -95.83984375 133.44140625 C-99.91812885 129.52175784 -103.71895217 125.2098979 -106.25 120.125 C-106.19522434 116.83348105 -105.73200802 115.59401622 -103.3659668 113.29174805 C-101.11650949 110.98830584 -99.88406638 108.90561929 -98.4375 106.0390625 C-97.66937988 104.53569336 -97.66937988 104.53569336 -96.88574219 103.00195312 C-96.34594727 101.92880859 -95.80615234 100.85566406 -95.25 99.75 C-94.09041288 97.48081364 -92.92891608 95.21260226 -91.765625 92.9453125 C-91.17974609 91.80223633 -90.59386719 90.65916016 -89.99023438 89.48144531 C-87.40127409 84.48803539 -84.70868886 79.55419911 -82 74.625 C-81.51192871 73.73071289 -81.02385742 72.83642578 -80.52099609 71.91503906 C-78.18363654 67.63368239 -75.82532716 63.36621622 -73.4296875 59.1171875 C-72.57778728 57.57831191 -71.72620646 56.03925944 -70.875 54.5 C-70.47506836 53.80712891 -70.07513672 53.11425781 -69.66308594 52.40039062 C-68.45191367 50.27623959 -68.45191367 50.27623959 -67.25 47.125 C-67.78386742 44.81657162 -67.78386742 44.81657162 -69.25 43.125 C-71.31040909 39.32116784 -72.25 37.52768476 -72.25 33.125 C-73.36375 33.145625 -74.4775 33.16625 -75.625 33.1875 C-79.25 33.125 -79.25 33.125 -81.25 32.125 C-81.9662143 25.32096419 -81.9662143 25.32096419 -80.01953125 22.0703125 C-77.52121895 19.09701243 -75.99627846 17.37375949 -72.25 16.125 C-70.86540109 16.03125832 -69.47686428 15.9897409 -68.08911133 15.9831543 C-66.83684502 15.97260262 -66.83684502 15.97260262 -65.5592804 15.96183777 C-64.65928818 15.95767349 -63.75929596 15.95350922 -62.83203125 15.94921875 C-60.9186089 15.92601139 -59.00519742 15.90189369 -57.09179688 15.87695312 C-54.08122581 15.84192085 -51.07105231 15.81253825 -48.06030273 15.79907227 C-45.15039 15.78351635 -42.24163485 15.74325029 -39.33203125 15.69921875 C-37.99722466 15.70208138 -37.99722466 15.70208138 -36.63545227 15.70500183 C-27.8010028 15.53372569 -22.12057856 12.22125141 -15.5 6.5 C-10.08106312 1.83971428 -7.25132175 -0.15763743 0 0 Z M-60.25 53.125 C-60.70213867 53.97916504 -61.15427734 54.83333008 -61.62011719 55.71337891 C-63.74506038 59.72647953 -65.87206388 63.73848565 -68 67.75 C-68.3844931 68.47485596 -68.76898621 69.19971191 -69.16513062 69.9465332 C-74.54058213 80.0755249 -79.958694 90.1779227 -85.49316406 100.22119141 C-85.93499023 101.02476074 -86.37681641 101.82833008 -86.83203125 102.65625 C-87.20561768 103.33236328 -87.5792041 104.00847656 -87.96411133 104.70507812 C-89.79164969 108.14433391 -91.50825508 111.64151017 -93.25 115.125 C-71.14 115.125 -49.03 115.125 -26.25 115.125 C-27.67206044 110.85881868 -28.91611905 107.61309818 -31.015625 103.765625 C-31.56943848 102.7442041 -32.12325195 101.7227832 -32.69384766 100.67041016 C-33.58789307 99.03918213 -33.58789307 99.03918213 -34.5 97.375 C-35.44027322 95.64833435 -36.38053459 93.92166212 -37.32009888 92.1946106 C-37.97010717 91.0001684 -38.62072923 89.80606003 -39.27194214 88.61227417 C-41.59501521 84.34873919 -43.87960494 80.06604109 -46.1484375 75.7734375 C-46.77942045 74.58420273 -47.41060251 73.39507357 -48.04199219 72.20605469 C-49.24319195 69.94124598 -50.43934677 67.67375271 -51.62988281 65.40332031 C-52.17741211 64.37561523 -52.72494141 63.34791016 -53.2890625 62.2890625 C-53.76553223 61.38623535 -54.24200195 60.4834082 -54.73291016 59.55322266 C-56.31417021 57.02229048 -58.06439713 55.14478634 -60.25 53.125 Z " fill="#FEE176" transform="translate(106.25,38.875)"/>
<path d="M0 0 C30.36 0 60.72 0 92 0 C93 5 93 5 91.69921875 7.61328125 C81.41792667 21.40817994 69.07698399 29.38369248 52 32 C37.89195722 33.32376237 23.5274795 29.78043005 12.42626953 20.71484375 C7.02042518 15.9248119 1.76019906 10.76248771 -1 4 C-0.67 2.68 -0.34 1.36 0 0 Z " fill="#E8B564" transform="translate(163,154)"/>
<path d="M0 0 C30.36 0 60.72 0 92 0 C93 4 93 4 92.1015625 6.04296875 C83.31701803 18.80147381 72.10008231 27.95385821 56.75 31.5 C55.1729863 31.71851776 53.58786354 31.88419148 52 32 C51.07058594 32.06832031 50.14117187 32.13664062 49.18359375 32.20703125 C34.08121832 32.73866637 20.93896255 27.94506064 9.41015625 18.31640625 C5.33187115 14.39675784 1.53104783 10.0848979 -1 5 C-0.67 3.35 -0.34 1.7 0 0 Z " fill="#E8B564" transform="translate(1,154)"/>
<path d="M0 0 C2.475 0.99 2.475 0.99 5 2 C7.23186177 2.3112078 7.23186177 2.3112078 9.4375 2.25 C10.15808594 2.25515625 10.87867188 2.2603125 11.62109375 2.265625 C14.66910674 2.00918711 14.66910674 2.00918711 20 0 C20 28.71 20 57.42 20 87 C17.69 86.34 15.38 85.68 13 85 C10.53720354 84.88969174 10.53720354 84.88969174 8.3125 85.25 C7.58675781 85.33765625 6.86101562 85.4253125 6.11328125 85.515625 C3.596682 86.00492209 3.596682 86.00492209 0 88 C0 58.96 0 29.92 0 0 Z " fill="#D7AA5E" transform="translate(118,72)"/>
<path d="M0 0 C2.51507946 -0.29465148 4.78451122 -0.3914051 7.30178833 -0.36076355 C8.06303792 -0.36332682 8.82428751 -0.3658901 9.60860527 -0.36853105 C12.17303856 -0.37349348 14.73689 -0.35693602 17.30126953 -0.34057617 C19.13405341 -0.33973043 20.9668383 -0.34020401 22.79962158 -0.34190369 C27.78703574 -0.34276713 32.77423501 -0.32508508 37.76159906 -0.30418181 C42.9693001 -0.28547297 48.17700565 -0.28366916 53.38473511 -0.28010559 C63.25160469 -0.27076805 73.11837498 -0.2461312 82.98520076 -0.21605712 C94.21597475 -0.1825662 105.44675339 -0.16604048 116.67756486 -0.15097082 C139.78509837 -0.1195831 162.89254363 -0.06678948 186 0 C187.125 1.75 187.125 1.75 188 4 C187.34 5.32 186.68 6.64 186 8 C124.62 8 63.24 8 0 8 C-0.66 6.35 -1.32 4.7 -2 3 C-1.34 2.01 -0.68 1.02 0 0 Z " fill="#E8B664" transform="translate(35,244)"/>
<path d="M0 0 C2.27564709 0.18132646 4.51398288 0.51991937 6.7734375 0.84375 C9.17283708 1.15453371 9.17283708 1.15453371 12 0 C18.58034101 11.70526542 24.97905219 23.5027528 31.29541016 35.35229492 C34.36999056 41.11608318 37.46512818 46.86645626 40.62890625 52.58203125 C41.18852051 53.59491211 41.74813477 54.60779297 42.32470703 55.65136719 C43.37630705 57.54953229 44.43303597 59.44486771 45.49560547 61.33691406 C45.9598291 62.17577148 46.42405273 63.01462891 46.90234375 63.87890625 C47.30960693 64.6066626 47.71687012 65.33441895 48.13647461 66.08422852 C49 68 49 68 49 71 C46.03 71 43.06 71 40 71 C34.0180588 60.35918224 28.1832911 49.64498595 22.4375 38.875 C17.08534927 28.84319552 11.65299698 18.86593511 6 9 C0.63367506 18.12103791 -4.39463202 27.41436939 -9.375 36.75 C-13.81323566 45.06417715 -18.25507103 53.37528111 -22.8125 61.625 C-23.21452637 62.3581543 -23.61655273 63.09130859 -24.03076172 63.84667969 C-25.51537525 66.51911422 -26.82679434 68.82679434 -29 71 C-31.1640625 71.1953125 -31.1640625 71.1953125 -33.625 71.125 C-34.44226562 71.10695313 -35.25953125 71.08890625 -36.1015625 71.0703125 C-36.72804688 71.04710937 -37.35453125 71.02390625 -38 71 C-36.64946864 67.48648979 -35.11778924 64.15597693 -33.3828125 60.81640625 C-32.86436768 59.81746338 -32.34592285 58.81852051 -31.81176758 57.78930664 C-31.25513428 56.72446045 -30.69850098 55.65961426 -30.125 54.5625 C-29.25814575 52.90045532 -29.25814575 52.90045532 -28.3737793 51.20483398 C-22.71673518 40.39563251 -16.89507788 29.68082384 -11 19 C-10.26910156 17.67210449 -10.26910156 17.67210449 -9.5234375 16.31738281 C-8.12230997 13.77268796 -6.71822858 11.2296556 -5.3125 8.6875 C-4.89009033 7.92187744 -4.46768066 7.15625488 -4.0324707 6.36743164 C-1.11742171 1.11742171 -1.11742171 1.11742171 0 0 Z " fill="#E1D3CE" transform="translate(41,84)"/>
<path d="M0 0 C2.09375 0.21875 2.09375 0.21875 4.1875 0.4375 C4.96480469 0.51871094 5.74210937 0.59992188 6.54296875 0.68359375 C7.35378906 0.78800781 8.16460937 0.89242187 9 1 C9.8156543 1.0726709 10.63130859 1.1453418 11.47167969 1.22021484 C14 2 14 2 15.57055664 4.05932617 C16.01262451 4.96142822 16.45469238 5.86353027 16.91015625 6.79296875 C17.67320068 8.31047729 17.67320068 8.31047729 18.45166016 9.85864258 C18.9832373 10.95716553 19.51481445 12.05568848 20.0625 13.1875 C21.21545242 15.48798035 22.37044009 17.78744167 23.52734375 20.0859375 C24.10726074 21.24834961 24.68717773 22.41076172 25.28466797 23.60839844 C27.79316307 28.56826379 30.44506458 33.44369375 33.125 38.3125 C33.6094458 39.19736084 34.0938916 40.08222168 34.59301758 40.99389648 C37.1109941 45.58698511 39.64829287 50.16905451 42.1953125 54.74609375 C42.70819824 55.67059326 43.22108398 56.59509277 43.74951172 57.54760742 C44.7289963 59.31166776 45.71222976 61.07365326 46.69970703 62.83325195 C47.13395996 63.61531006 47.56821289 64.39736816 48.015625 65.203125 C48.40008789 65.89051758 48.78455078 66.57791016 49.18066406 67.28613281 C50 69 50 69 50 71 C46.83515819 71.56967153 44.15410023 71.68628291 41 71 C39.40917969 69.35205078 39.40917969 69.35205078 38.046875 67.1328125 C37.54075684 66.31208252 37.03463867 65.49135254 36.51318359 64.64575195 C34.00647102 60.26284712 31.66146783 55.81370486 29.375 51.3125 C25.18770314 43.18234743 20.9373064 35.09348268 16.5625 27.0625 C16.07894043 26.17022705 15.59538086 25.2779541 15.09716797 24.35864258 C12.23497206 19.11890532 9.21309244 14.03248417 6 9 C0.66267857 18.7360469 -4.66356833 28.47765833 -9.890625 38.2734375 C-10.38030006 39.19056519 -10.38030006 39.19056519 -10.87986755 40.1262207 C-12.47596119 43.1166294 -14.06915445 46.10850563 -15.65844727 49.10253906 C-17.42212738 52.41108516 -19.20914108 55.70610318 -21 59 C-21.60448975 60.14726562 -22.20897949 61.29453125 -22.83178711 62.4765625 C-23.42870361 63.5696875 -24.02562012 64.6628125 -24.640625 65.7890625 C-25.16817383 66.77342285 -25.69572266 67.7577832 -26.23925781 68.77197266 C-28 71 -28 71 -30.5324707 71.72119141 C-32.81686061 71.74855492 -34.78486332 71.54248245 -37 71 C-36.40358429 67.13197936 -35.24671794 64.2319574 -33.3671875 60.80859375 C-32.53973022 59.28806396 -32.53973022 59.28806396 -31.69555664 57.73681641 C-31.09477295 56.64804199 -30.49398926 55.55926758 -29.875 54.4375 C-28.92725491 52.70076853 -27.97952916 50.96402626 -27.03279114 49.22674561 C-26.37263617 48.01604948 -25.71164205 46.80581058 -25.04985046 45.5960083 C-22.66708661 41.23800617 -20.31516512 36.8643916 -17.98046875 32.48046875 C-17.48682831 31.5543 -17.48682831 31.5543 -16.98321533 30.60942078 C-15.40007902 27.63836449 -13.81887602 24.66630428 -12.23974609 21.69311523 C-8.32398214 14.35768508 -4.24102098 7.15203195 0 0 Z " fill="#E1D3CD" transform="translate(203,84)"/>
<path d="M0 0 C3.58305992 -0.11627503 7.16563417 -0.1872736 10.75 -0.25 C11.76578125 -0.28351563 12.7815625 -0.31703125 13.828125 -0.3515625 C21.24680048 -0.44917665 21.24680048 -0.44917665 24.57421875 1.53515625 C26.44804253 4.7745612 27.29353322 8.0633561 28.0625 11.6875 C28.60058047 14.19932541 29.22000755 16.54139262 30 19 C33.00198032 20.00066011 35.23576632 20.12959104 38.375 20.25 C42.16540778 20.54620405 44.48591234 20.7986279 47.1875 23.5625 C47.785625 24.366875 48.38375 25.17125 49 26 C47 28 47 28 44.10202026 28.24050903 C42.86291901 28.23606781 41.62381775 28.23162659 40.34716797 28.22705078 C39.66412598 28.22734283 38.98108398 28.22763489 38.27734375 28.22793579 C36.01549659 28.22654039 33.75397724 28.21096967 31.4921875 28.1953125 C29.92563049 28.19158311 28.35907116 28.18873579 26.79251099 28.18673706 C22.66605203 28.17909476 18.53973349 28.15944124 14.41333008 28.1373291 C10.20395813 28.11688346 5.99456352 28.1077381 1.78515625 28.09765625 C-6.476627 28.07619583 -14.73829604 28.04205279 -23 28 C-23.06438898 26.24267048 -23.11031151 24.48465788 -23.1484375 22.7265625 C-23.17599121 21.74768066 -23.20354492 20.76879883 -23.23193359 19.76025391 C-22.86764521 15.42483873 -21.16924171 13.86740917 -18 11 C-14.54096843 9.27048422 -10.56898838 9.59464237 -6.75 9.37890625 C-3.86015992 9.26280834 -3.86015992 9.26280834 -2 7 C-1.28072705 4.68234271 -0.6090107 2.34904126 0 0 Z " fill="#E8B564" transform="translate(109,195)"/>
<path d="M0 0 C4.35944153 2.22084757 7.16830464 4.42076159 9 9 C9.55279021 13.89614183 9.47083949 17.65880392 7 22 C8.2065625 22.6496875 8.2065625 22.6496875 9.4375 23.3125 C12 25 12 25 13 28 C13.43243266 33.62162453 12.66769491 37.14098427 10 42 C5.07145028 45.39745831 -1.29779084 44.20698886 -7 44 C-7.89460938 43.97035156 -8.78921875 43.94070312 -9.7109375 43.91015625 C-13.41180077 43.6581041 -15.44893802 43.39951994 -18.5 41.1875 C-21.38571105 36.97917138 -21.35449682 33.05157966 -21 28 C-19.34860695 24.4613006 -18.28394771 23.18929847 -15 21 C-15.66 20.01 -16.32 19.02 -17 18 C-17.59992545 13.83947804 -17.43783544 10.0945886 -15.875 6.1875 C-11.37354642 0.93580415 -6.80346969 -1.3443982 0 0 Z " fill="#D8AA5D" transform="translate(132,4)"/>
<path d="M0 0 C4.58105888 3.29836239 6.09711958 6.08878746 7 11.5625 C7.42101574 16.49911597 6.23281441 19.80016958 4.125 24.25 C0.54912669 27.82587331 -4.9104698 26.7050334 -9.75 26.75 C-10.85214844 26.79125 -11.95429687 26.8325 -13.08984375 26.875 C-16.13286238 26.90457977 -18.89046787 26.84828113 -21.875 26.25 C-25.66205889 22.38621344 -26.59615206 18.72828026 -26.984375 13.49609375 C-26.7514377 8.71255988 -24.49825721 5.18488582 -21.875 1.25 C-14.65749315 -3.4497719 -7.65574764 -3.92437484 0 0 Z " fill="#FED05A" transform="translate(137.875,158.75)"/>
<path d="M0 0 C0 28.71 0 57.42 0 87 C-2.97 86.01 -5.94 85.02 -9 84 C-9 57.27 -9 30.54 -9 3 C-1 0 -1 0 0 0 Z " fill="#C99C56" transform="translate(138,72)"/>
<path d="M0 0 C7.92 0 15.84 0 24 0 C27.87980383 6.78965671 29.31093375 9.64037195 28 17 C26.20745673 21.69551156 24.03255493 24.36458158 19.75 27 C14.43489968 28.41736009 9.84556088 29.44010125 4.75390625 26.86328125 C0.51124477 23.89731056 -2.41767021 21.0436762 -4 16 C-5.0237573 8.92441158 -3.82047439 6.68583019 0 0 Z " fill="#FED05A" transform="translate(116,47)"/>
<path d="M0 0 C-0.34330638 5.49290208 -3.60281108 8.95787014 -7 13 C-7.53238281 13.66386719 -8.06476563 14.32773438 -8.61328125 15.01171875 C-16.34849603 23.74170616 -29.33156239 30.19721149 -41 31 C-46.81498081 31.25665111 -52.30401848 31.29689925 -58 30 C-55.49146794 27.49146794 -53.29020466 26.96143856 -49.9375 25.8125 C-40.12413437 22.10546871 -29.83536887 14.91438659 -25.10839844 5.16015625 C-24.37428455 3.45323414 -23.68356578 1.7277859 -23 0 C-19.91722144 -0.1974877 -16.8337715 -0.38123332 -13.75 -0.5625 C-12.87730469 -0.61857422 -12.00460938 -0.67464844 -11.10546875 -0.73242188 C-10.26113281 -0.78076172 -9.41679688 -0.82910156 -8.546875 -0.87890625 C-7.77182617 -0.9260376 -6.99677734 -0.97316895 -6.19824219 -1.02172852 C-3.96887415 -0.99969234 -2.13101433 -0.6303897 0 0 Z " fill="#D8AA5E" transform="translate(94,155)"/>
<path d="M0 0 C-0.90463053 8.65681164 -6.82730662 14.47647942 -13.375 19.8125 C-24.88308118 28.15880461 -38.66257877 32.75235148 -53 31 C-53.99 30.34 -54.98 29.68 -56 29 C-54.94941406 28.50371094 -53.89882812 28.00742188 -52.81640625 27.49609375 C-39.98194713 21.3342687 -30.72890196 15.38201641 -23 3 C-22.67 2.01 -22.34 1.02 -22 0 C-18.89635771 -0.19696449 -15.79207808 -0.38093262 -12.6875 -0.5625 C-11.36588867 -0.64661133 -11.36588867 -0.64661133 -10.01757812 -0.73242188 C-8.74624023 -0.80493164 -8.74624023 -0.80493164 -7.44921875 -0.87890625 C-6.27879028 -0.94960327 -6.27879028 -0.94960327 -5.0847168 -1.02172852 C-3 -1 -3 -1 0 0 Z " fill="#D8AA5D" transform="translate(256,155)"/>
<path d="M0 0 C1.23234375 -0.02578125 2.4646875 -0.0515625 3.734375 -0.078125 C8.27174498 0.34536286 11.54493439 1.65833543 14.89453125 4.78515625 C20.1949583 11.71648394 19.25 11.52855342 19.25 22.25 C10.34 22.25 1.43 22.25 -7.75 22.25 C-8.08 18.62 -8.41 14.99 -8.75 11.25 C-11.01110052 6.80855254 -13.729673 4.1535695 -17.75 1.25 C-11.84342516 0.4717219 -5.95616584 0.11759459 0 0 Z " fill="#C99C56" transform="translate(177.75,221.75)"/>
<path d="M0 0 C3.95216267 2.07698761 6.30616005 4.07790012 7.9609375 8.21484375 C9.56093282 14.73982468 8.81981162 19.17944283 5.9609375 25.21484375 C3.9609375 27.21484375 3.9609375 27.21484375 1.53076172 27.44189453 C0.5357666 27.4314209 -0.45922852 27.42094727 -1.484375 27.41015625 C-2.56074219 27.40371094 -3.63710937 27.39726562 -4.74609375 27.390625 C-5.87402344 27.37386719 -7.00195312 27.35710937 -8.1640625 27.33984375 C-9.29972656 27.33082031 -10.43539062 27.32179687 -11.60546875 27.3125 C-14.41687549 27.28887473 -17.22786548 27.25593388 -20.0390625 27.21484375 C-20.0390625 26.88484375 -20.0390625 26.55484375 -20.0390625 26.21484375 C-19.27980469 26.21226562 -18.52054687 26.2096875 -17.73828125 26.20703125 C-14.7407068 26.09039411 -11.96945328 25.86316029 -9.0390625 25.21484375 C-5.76351869 21.47136511 -5.51229749 17.29376692 -5.68359375 12.46484375 C-6.28884991 8.6337718 -7.74019656 6.34385573 -10.0390625 3.21484375 C-12.12358086 1.74857515 -12.12358086 1.74857515 -14.0390625 1.21484375 C-14.0390625 0.55484375 -14.0390625 -0.10515625 -14.0390625 -0.78515625 C-9.31966807 -2.35828773 -4.63865703 -1.78614955 0 0 Z " fill="#FDC246" transform="translate(136.0390625,157.78515625)"/>
<path d="M0 0 C3.48134661 5.02861176 3.95656441 10.08752094 3 16 C1.21825507 20.69588775 -0.97263758 23.36777697 -5.25 26 C-9.63520372 27.16938766 -13.49739271 27.27566983 -18 27 C-18 24 -18 24 -15.625 21.5625 C-14.75875 20.716875 -13.8925 19.87125 -13 19 C-10.38400656 15.38743763 -10.44979004 11.29801696 -11 7 C-11.81115432 4.51027199 -12.82336042 2.35327917 -14 0 C-12.2300132 -0.19532961 -10.45895721 -0.38098882 -8.6875 -0.5625 C-7.70136719 -0.66691406 -6.71523437 -0.77132812 -5.69921875 -0.87890625 C-3 -1 -3 -1 0 0 Z " fill="#FEC344" transform="translate(141,48)"/>
<path d="M0 0 C7.92 0 15.84 0 24 0 C25.09762629 5.48813144 24.85646094 6.46906195 22 11 C19.01778347 14.32631844 15.53299412 14.72436889 11.25 15.0625 C7.82677161 14.96741032 5.76405847 13.97432748 3 12 C-0.5820346 7.70155849 0 6.13905104 0 0 Z " fill="#E8B665" transform="translate(197,71)"/>
<path d="M0 0 C1.00023193 0.00523682 2.00046387 0.01047363 3.03100586 0.01586914 C4.1105957 0.0190918 5.19018555 0.02231445 6.30249023 0.02563477 C8.00695312 0.03820312 8.00695312 0.03820312 9.74584961 0.05102539 C11.45611328 0.05779297 11.45611328 0.05779297 13.20092773 0.06469727 C16.02845312 0.07652792 18.85587601 0.09301129 21.68334961 0.11352539 C21.86697938 5.84685493 21.50885006 8.66767352 17.68334961 13.11352539 C13.24379717 15.68379259 8.95965377 15.70970029 4.05834961 14.42602539 C0.97830523 12.7238956 -0.45559599 11.10450568 -2.31665039 8.11352539 C-3.12915039 4.36352539 -3.12915039 4.36352539 -3.31665039 1.11352539 C-2.31665039 0.11352539 -2.31665039 0.11352539 0 0 Z " fill="#D9AB5F" transform="translate(37.316650390625,70.886474609375)"/>
<path d="M0 0 C2.62138313 3.37034974 2.34945315 6.87645285 2 11 C1.21801105 13.54777044 0.24233768 15.61088908 -1 18 C-3.88415883 19.44207941 -6.41721528 19.09394887 -9.625 19.0625 C-10.81351563 19.05347656 -12.00203125 19.04445313 -13.2265625 19.03515625 C-14.14179688 19.02355469 -15.05703125 19.01195313 -16 19 C-15.51273437 18.46375 -15.02546875 17.9275 -14.5234375 17.375 C-12.61179483 14.39479809 -12.59862322 12.51690335 -12.625 9 C-12.61726562 7.96875 -12.60953125 6.9375 -12.6015625 5.875 C-13.04034456 2.70888632 -13.87717651 1.33622903 -16 -1 C-14.27277272 -1.22384382 -12.54303993 -1.42839969 -10.8125 -1.625 C-9.36810547 -1.79902344 -9.36810547 -1.79902344 -7.89453125 -1.9765625 C-4.72496232 -2.00222703 -2.80896922 -1.42921145 0 0 Z " fill="#C99D55" transform="translate(143,28)"/>
<path d="M0 0 C2.89640118 -0.08120751 5.79050912 -0.14059421 8.6875 -0.1875 C9.50412109 -0.21263672 10.32074219 -0.23777344 11.16210938 -0.26367188 C17.42255833 -0.33970972 20.68552277 0.81062965 25.3125 5.1875 C27.63265491 9.05442486 27.30214142 11.54341411 27 16 C22.09873048 18.45063476 15.24757977 16.87459663 10 16 C10.0928125 14.4221875 10.0928125 14.4221875 10.1875 12.8125 C9.98516298 8.69831383 9.66422182 7.09393501 7 4 C4.70325094 2.72913219 2.48730887 1.89167677 0 1 C0 0.67 0 0.34 0 0 Z " fill="#FED25C" transform="translate(204,55)"/>
<path d="M0 0 C6.42569948 3.91129534 6.42569948 3.91129534 8 8 C8.54368178 12.01053575 8.50960698 15.72598255 7 19.5 C3.90287996 21.82284003 0.84057097 22.42501288 -3 22 C-5.81814459 19.88639155 -6.79185659 18.32541894 -7.33984375 14.8359375 C-7.53787655 10.09899295 -7.10340197 6.76841668 -4 3 C-1.8125 1.1875 -1.8125 1.1875 0 0 Z " fill="#E8B564" transform="translate(122,5)"/>
<path d="M0 0 C3.63 0 7.26 0 11 0 C10.58791189 5.25412337 9.82282913 8.28336057 6 12 C2.28558235 14.05270449 -0.79955703 14.19536944 -5 14 C-5 11 -5 11 -3.625 9.25 C-1.52682726 6.34483774 -0.86261798 3.45047191 0 0 Z " fill="#D9AB60" transform="translate(211,72)"/>
<path d="M0 0 C1.79244141 0.01740234 1.79244141 0.01740234 3.62109375 0.03515625 C5.41740234 0.04869141 5.41740234 0.04869141 7.25 0.0625 C8.17683594 0.07410156 9.10367188 0.08570312 10.05859375 0.09765625 C10.48828036 4.39452234 10.47229134 7.10980173 7.74609375 10.47265625 C5.05859375 13.09765625 5.05859375 13.09765625 2.05859375 14.09765625 C-2.00406388 9.82665721 -3.70128848 7.22065951 -3.94140625 1.09765625 C-2.94140625 0.09765625 -2.94140625 0.09765625 0 0 Z " fill="#E9B764" transform="translate(37.94140625,70.90234375)"/>
</svg>
